<?xml version="1.0" standalone="no"?>
<!DOCTYPE svg PUBLIC "-//W3C//DTD SVG 20010904//EN"
 "http://www.w3.org/TR/2001/REC-SVG-20010904/DTD/svg10.dtd">
<svg version="1.0" xmlns="http://www.w3.org/2000/svg"
 width="1024.000000pt" height="1024.000000pt" viewBox="0 0 1024.000000 1024.000000"
 preserveAspectRatio="xMidYMid meet">
<metadata>
Created by potrace 1.14, written by Peter Selinger 2001-2017
</metadata>
<g transform="translate(0.000000,1024.000000) scale(0.100000,-0.100000)"
fill="#000000" stroke="none">
<path d="M3397 7488 c-27 -20 -36 -67 -23 -118 14 -54 77 -155 265 -430 383
-560 460 -685 506 -816 14 -38 25 -88 25 -110 0 -52 -30 -94 -68 -94 -40 0
-172 142 -317 339 -405 552 -580 776 -688 880 -36 35 -52 43 -81 43 -67 0
-114 -52 -100 -110 18 -73 128 -263 359 -622 297 -460 375 -613 377 -731 1
-55 -34 -89 -91 -89 -33 0 -45 7 -97 63 -102 106 -259 326 -414 577 -207 336
-328 499 -410 554 -84 55 -170 42 -170 -27 0 -168 460 -991 748 -1338 160
-192 382 -313 704 -384 189 -41 251 -103 520 -518 216 -333 269 -397 328 -397
23 0 38 12 74 58 130 161 121 211 -86 519 -123 182 -228 381 -253 478 -22 88
-19 156 16 295 27 112 30 136 26 230 -16 326 -264 869 -608 1327 -142 190
-313 362 -399 402 -69 33 -116 39 -143 19z"/>
<path d="M6809 7438 c-222 -20 -452 -122 -617 -273 -216 -198 -437 -609 -473
-882 -16 -117 -5 -226 56 -543 25 -129 45 -241 45 -250 0 -8 -104 -148 -232
-310 -581 -741 -913 -1235 -1282 -1910 -260 -474 -545 -1103 -607 -1338 -41
-151 -26 -311 42 -451 38 -78 155 -204 219 -236 169 -86 505 -52 683 68 76 52
135 136 168 239 32 99 34 301 5 392 -21 63 -64 126 -108 159 -43 32 -127 35
-185 7 -83 -39 -135 -52 -150 -37 -20 20 6 85 123 307 57 107 153 301 213 431
391 846 960 1844 1262 2214 153 188 248 248 427 271 186 24 308 58 458 130
405 192 715 596 785 1023 16 99 14 273 -6 376 -77 412 -401 652 -826 613z"/>
<path d="M5327 3670 c-20 -23 -57 -73 -82 -111 -117 -175 -109 -239 130 -959
173 -523 195 -606 166 -625 -5 -3 -37 17 -72 45 -123 98 -213 119 -279 64 -64
-54 -91 -149 -91 -319 0 -323 138 -508 408 -546 135 -19 334 11 453 68 248
120 297 470 130 923 -155 419 -616 1387 -704 1478 l-23 24 -36 -42z"/>
</g>
</svg>
